# AST/ASF file generated using VICON BodyLanguage
# -----------------------------------------------
:version 1.10
:name VICON
:units
  mass 1.0
  length 0.45
  angle deg
:documentation
   .ast/.asf automatically generated from VICON data using
   VICON BodyBuilder and BodyLanguage model FoxedUp or BRILLIANT.MOD
:root
   order TX TY TZ RX RY RZ
   axis XYZ
   position 0 0 0  
   orientation 0 0 0 
:bonedata
  begin
     id 1 
     name lhipjoint
     direction 0.573633 -0.743009 0.344793 
     length 2.46257 
     axis 0 0 0  XYZ
  end
  begin
     id 2 
     name lfemur
     direction 0.34202 -0.939693 0  
     length 7.3842  
     axis 0 0 20  XYZ
    dof rx ry rz
    limits (-160.0 20.0)
           (-70.0 70.0)
           (-60.0 70.0)
  end
  begin
     id 3 
     name ltibia
     direction 0.34202 -0.939693 0   
     length 7.50407   
     axis 0 0 20   XYZ
    dof rx
    limits (-10.0 170.0)
  end
  begin
     id 4 
     name lfoot
     direction 0.110749 -0.304281 0.946123   
     length 1.95925   
     axis -90 7.62852e-016 20   XYZ
    dof rx rz
    limits (-45.0 90.0)
           (-70.0 20.0)
  end
  begin
     id 5 
     name ltoes
     direction 1.53554e-011 -4.21843e-011 1   
     length 0.978318   
     axis -90 7.62852e-016 20   XYZ
    dof rx
    limits (-90.0 20.0)
  end
  begin
     id 6 
     name rhipjoint
     direction -0.488109 -0.791693 0.367385   
     length 2.31113  
     axis 0 0 0  XYZ 
  end
  begin
     id 7 
     name rfemur
     direction -0.34202 -0.939693 0   
     length 7.40965   
     axis 0 0 -20   XYZ
    dof rx ry rz
    limits (-160.0 20.0)
           (-70.0 70.0)
           (-70.0 60.0)
  end
  begin
     id 8 
     name rtibia
     direction -0.34202 -0.939693 0   
     length 7.55548   
     axis 0 0 -20   XYZ
    dof rx
    limits (-10.0 170.0)
 end
 begin
     id 9 
     name rfoot
     direction -0.127594 -0.350561 0.927808   
     length 2.07199  
     axis -90 -7.62852e-016 -20   XYZ
    dof rx rz
    limits (-45.0 90.0)
           (-20.0 70.0)
  end
  begin
     id 10 
     name rtoes
     direction -1.53542e-011 -4.21909e-011 1   
     length 1.02667   
     axis -90 -7.62852e-016 -20   XYZ
    dof rx
    limits (-90.0 20.0)
  end
  begin
     id 11 
     name lowerback
     direction -0.0103342 0.997298 -0.0727278   
     length 2.02836   
     axis 0 0 0   XYZ
    dof rx ry rz
    limits (-20.0 45.0)
           (-30.0 30.0)
           (-30.0 30.0)
  end
  begin
     id 12 
     name upperback
     direction 0.0171146 0.999786 -0.011606   
     length 2.03179   
     axis 0 0 0   XYZ
    dof rx ry rz
    limits (-20.0 45.0)
           (-30.0 30.0)
           (-30.0 30.0)
  end
  begin
     id 13 
     name thorax
     direction 0.0216927 0.999513 0.0224343   
     length 2.03882   
     axis 0 0 0   XYZ
    dof rx ry rz
    limits (-20.0 45.0)
           (-30.0 30.0)
           (-30.0 30.0)
  end
  begin
     id 14 
     name lowerneck
     direction 0.000989287 0.993907 0.110221   
     length 1.75428   
     axis 0 0 0   XYZ
    dof rx ry rz
    limits (-20.0 45.0)
           (-30.0 30.0)
           (-30.0 30.0)
  end
  begin
     id 15 
     name upperneck
     direction -0.0172474 0.994813 -0.100253   
     length 1.77058   
     axis 0 0 0   XYZ
    dof rx ry rz
    limits (-20.0 45.0)
           (-30.0 30.0)
           (-30.0 30.0)
  end
  begin
     id 16
     name head
     direction -0.00486455 0.99894 -0.0457663  
     length 1.77427  
     axis 0 0 0   XYZ
    dof rx ry rz
    limits (-20.0 45.0)
           (-30.0 30.0)
           (-30.0 30.0)
  end
  begin
     id 17 
     name lclavicle
     direction 0.927314 0.333734 -0.169441  
     length 3.97584  
     axis 0 0 0   XYZ
    dof ry rz
    limits (-20.0 10.0)
           (0.0 20.0)
  end
  begin
     id 18 
     name lhumerus
     direction 1 -4.48965e-011 -3.25313e-028   
     length 4.76468   
     axis 180 -30 -90   XYZ
    dof rx ry rz
    limits (-60.0 90.0)
           (-90.0 90.0)
           (-90.0 90.0)
  end
  begin
     id 19
     name lradius
     direction 1 -4.48969e-011 -2.8465e-028   
     length 3.52712   
     axis -180 -30 -90   XYZ
    dof rx
    limits (-10.0 170.0)
  end
  begin
     id 20
     name lwrist
     direction 1 -4.4896e-011 -7.78665e-028   
     length 1.76356   
     axis 1.91374e-015 90 90   XYZ
    dof ry
    limits (-180.0 0.0)
 end
  begin
     id 21 
     name lhand
     direction 1 -4.48959e-011 -1.55733e-027   
     length 0.859564   
     axis 9.9371e-016 90 90   XYZ
    dof rx rz
    limits (-90.0 90.0)
           (-45.0 45.0)
  end
  begin
     id 22 
     name lfingers
     direction 1 -4.48965e-011 -3.11466e-027   
     length 0.693002   
     axis 1.98742e-015 90 90   XYZ
    dof rx
    limits (0.0 90.0)
  end
  begin
     id 23
     name lthumb
     direction 0.707107 -6.34948e-011 0.707107   
     length 0.995017   
     axis -90 45 2.85299e-015   XYZ
    dof rx rz
    limits (-45.0 45.0)
           (-45.0 45.0)
  end
  begin
     id 24 
     name rclavicle
     direction -0.899388 0.348209 -0.264294   
     length 3.68366  
     axis 0 0 0   XYZ 
    dof ry rz
    limits (-10.0 20.0)
           (-20.0 0.0)
  end
  begin
     id 25 
     name rhumerus
     direction -1 -4.48965e-011 -3.01536e-027  
     length 4.90577   
     axis 180 30 90   XYZ
    dof rx ry rz
    limits (-90.0 60.0)
           (-90.0 90.0)
           (-90.0 90.0)
  end
  begin
     id 26 
     name rradius
     direction -1 -4.48966e-011 3.93291e-027   
     length 3.42692   
     axis -180 30 90   XYZ
    dof rx
    limits (-10.0 170.0)
  end
  begin
     id 27 
     name rwrist
     direction -1 -4.48969e-011 -7.78665e-028   
     length 1.71346   
     axis 1.91374e-015 -90 -90   XYZ
    dof ry
    limits (-180.0 0.0)
  end
  begin
     id 28
     name rhand
     direction -1 -4.48967e-011 -1.55733e-027   
     length 0.740957   
     axis 9.9371e-016 -90 -90   XYZ
    dof rx rz
    limits (-90.0 90.0)
           (-45.0 45.0)
  end
  begin
     id 29
     name rfingers
     direction -1 -4.48949e-011 -3.11466e-027   
     length 0.597378   
     axis 1.98742e-015 -90 -90   XYZ
    dof rx
    limits (0.0 90.0)
  end
  begin
     id 30
     name rthumb
     direction -0.707107 -6.34931e-011 0.707107   
     length 0.857719   
     axis -90 -45 -2.85299e-015   XYZ
    dof rx rz
    limits (-45.0 45.0)
           (-45.0 45.0)
  end
:hierarchy
  begin
    root lhipjoint rhipjoint lowerback
    lhipjoint lfemur
    lfemur ltibia
    ltibia lfoot
    lfoot ltoes
    rhipjoint rfemur
    rfemur rtibia
    rtibia rfoot
    rfoot rtoes
    lowerback upperback
    upperback thorax
    thorax lowerneck lclavicle rclavicle
    lowerneck upperneck
    upperneck head
    lclavicle lhumerus
    lhumerus lradius
    lradius lwrist
    lwrist lhand lthumb
    lhand lfingers
    rclavicle rhumerus
    rhumerus rradius
    rradius rwrist
    rwrist rhand rthumb
    rhand rfingers
  end

#!OML:ASF I:\AllaLogoMonkeySwing\Project 1\Capture day 1\Session 1\Subject1.ASF
:FULLY-SPECIFIED
:DEGREES
144
root -5.045 17.8622 -17.4816 8.74683 0.59592 0.727842
lowerback 20.8759 0.997265 -3.11809
upperback 4.96608 0.750965 1.43396
thorax -6.31643 0.409188 3.13467
lowerneck -13.4014 -0.653268 -2.08216
upperneck 7.93648 -0.555527 0.532739
head 4.56518 -0.304494 0.458064
rclavicle 1.98785e-015 -7.95139e-016
rhumerus -28.6112 -7.59553 -78.4646
rradius 31.2416
rwrist -8.52915
rhand -11.3095 -38.2127
rfingers 7.12502
rthumb 14.7223 -67.6699
lclavicle 1.98785e-015 -7.95139e-016
lhumerus -37.8896 14.841 82.185
lradius 51.1043
lwrist 14.8061
lhand -18.1641 -15.3076
lfingers 7.12502
lthumb 8.11199 14.5167
rfemur -22.4214 -1.56758 20.9167
rtibia 33.3761
rfoot -18.6028 -2.28462
rtoes 13.5346
lfemur -17.6456 2.36903 -23.3397
ltibia 26.846
lfoot -17.7911 -0.787608
ltoes -27.7457
145
root -5.04188 17.8686 -17.3737 7.92528 0.540398 0.765474
lowerback 20.1466 0.919944 -3.30217
upperback 4.56906 0.619045 1.26164
thorax -6.35292 0.35421 3.08722
lowerneck -13.4573 -0.537679 -1.94217
upperneck 8.80967 -0.416594 0.468696
head 4.84321 -0.240092 0.426359
rclavicle 2.98177e-015 5.96354e-015
rhumerus -29.4962 -9.5106 -77.6628
rradius 30.5725
rwrist -8.19897
rhand -10.9441 -38.2494
rfingers 7.12502
rthumb 15.0743 -67.6806
lclavicle 2.98177e-015 5.96354e-015
lhumerus -38.2805 16.099 81.0377
lradius 49.2212
lwrist 13.6719
lhand -17.6402 -14.6692
lfingers 7.12502
lthumb 8.61754 15.1349
rfemur -20.7565 -1.55693 20.8214
rtibia 32.7099
rfoot -18.7431 -2.21465
rtoes 13.7135
lfemur -15.8546 2.15594 -23.3142
ltibia 26.0032
lfoot -17.8549 -0.494239
ltoes -27.6773
146
root -5.04257 17.8744 -17.2688 7.33601 0.448226 0.585676
lowerback 19.2502 0.842703 -3.36115
upperback 4.1405 0.527204 1.19821
thorax -6.33407 0.316739 3.0745
lowerneck -13.5807 -0.403258 -2.02273
upperneck 9.69272 -0.234093 0.605139
head 5.13684 -0.148478 0.497181
rclavicle 1.2921e-015 1.78906e-015
rhumerus -30.2124 -11.29 -76.7996
rradius 29.8048
rwrist -7.73277
rhand -10.7095 -38.0594
rfingers 7.12502
rthumb 15.3003 -67.4734
lclavicle 1.2921e-015 1.78906e-015
lhumerus -38.6269 17.5729 79.9312
lradius 47.3322
lwrist 12.319
lhand -17.0324 -14.1347
lfingers 7.12502
lthumb 9.2041 15.6444
rfemur -19.3719 -1.4024 20.9813
rtibia 32.0907
rfoot -18.9289 -2.21124
rtoes 15.1926
lfemur -14.3753 1.96483 -23.0596
ltibia 25.2281
lfoot -17.8964 -0.173827
ltoes -28.0066
147
root -5.04969 17.8806 -17.1644 6.90293 0.345799 0.437313
lowerback 18.1706 0.757158 -3.57858
upperback 3.74342 0.405009 1.17771
thorax -6.17624 0.26424 3.20366
lowerneck -13.7678 -0.21214 -2.00849
upperneck 10.5557 0.0211011 0.634611
head 5.43464 -0.0253908 0.526845
rclavicle -6.95746e-016 7.35503e-015
rhumerus -30.768 -12.9039 -76.0554
rradius 29.1433
rwrist -7.23519
rhand -10.7671 -37.7958
rfingers 7.12502
rthumb 15.2449 -67.214
lclavicle -6.95746e-016 7.35503e-015
lhumerus -39.0586 19.0367 78.8849
lradius 45.7839
lwrist 11.1856
lhand -16.3189 -13.7035
lfingers 7.12502
lthumb 9.89251 16.0441
rfemur -18.1555 -1.18203 21.1375
rtibia 31.4928
rfoot -19.1774 -2.16611
rtoes 18.0751
lfemur -13.1241 1.81928 -22.8296
ltibia 24.5732
lfoot -17.9747 0.0836172
ltoes -27.8118
148
root -5.05501 17.8831 -17.0701 6.45668 0.268285 0.361156
lowerback 17.2993 0.654993 -3.83915
upperback 3.34235 0.248467 1.14536
thorax -6.12545 0.198124 3.35076
lowerneck -13.9011 0.0222885 -1.87506
upperneck 11.2852 0.321922 0.578873
head 5.68258 0.118782 0.515612
rclavicle 7.95139e-016 6.85807e-015
rhumerus -31.3472 -14.4866 -75.3839
rradius 28.6831
rwrist -6.69333
rhand -10.8935 -37.6563
rfingers 7.12502
rthumb 15.1231 -67.0837
lclavicle 7.95139e-016 6.85807e-015
lhumerus -39.682 20.1399 78.0044
lradius 44.7243
lwrist 10.4074
lhand -15.7789 -13.286
lfingers 7.12502
lthumb 10.4134 16.4361
rfemur -16.9892 -1.05591 21.2233
rtibia 30.927
rfoot -19.4862 -2.15298
rtoes 18.9652
lfemur -11.9568 1.71688 -22.6948
ltibia 24.0182
lfoot -18.0961 0.297182
ltoes -27.443
149
root -5.05489 17.8835 -16.9839 6.05489 0.148516 0.146523
lowerback 16.5704 0.567251 -3.85223
upperback 2.90648 0.152955 1.13922
thorax -6.18952 0.160702 3.37016
lowerneck -13.926 0.226668 -1.76605
upperneck 11.8569 0.583106 0.538493
head 5.86443 0.244304 0.510155
rclavicle 5.2181e-016 9.93923e-016
rhumerus -31.9052 -15.8195 -74.844
rradius 28.7606
rwrist -6.51253
rhand -10.6152 -39.3651
rfingers 7.12502
rthumb 15.3912 -68.7722
lclavicle 5.2181e-016 9.93923e-016
lhumerus -40.3589 20.9627 77.3175
lradius 43.8335
lwrist 9.61664
lhand -15.4766 -13.0475
lfingers 7.12502
lthumb 10.7051 16.6597
rfemur -15.9679 -0.976146 21.4494
rtibia 30.4571
rfoot -19.7553 -2.19456
rtoes 18.1463
lfemur -10.8784 1.66557 -22.4412
ltibia 23.4681
lfoot -18.1983 0.546416
ltoes -27.5621
150
root -5.05322 17.8836 -16.9029 5.72478 -0.063685 -0.00404776
lowerback 15.7453 0.528804 -3.92566
upperback 2.54746 0.115943 1.12197
thorax -6.12048 0.148578 3.39756
lowerneck -13.882 0.388998 -1.59589
upperneck 12.2071 0.785003 0.424166
head 5.96666 0.339149 0.46554
rclavicle 6.70898e-016 -5.96354e-016
rhumerus -32.3043 -17.2292 -74.3037
rradius 28.5329
rwrist -6.00413
rhand -10.4903 -39.8272
rfingers 7.12502
rthumb 15.5114 -69.225
lclavicle 6.70898e-016 -5.96354e-016
lhumerus -40.846 21.7557 76.7864
lradius 43.0049
lwrist 8.78557
lhand -15.1002 -12.8961
lfingers 7.12502
lthumb 11.0681 16.792
rfemur -15.111 -0.879283 21.6036
rtibia 30.1113
rfoot -19.7696 -2.26021
rtoes 16.768
lfemur -9.89426 1.67243 -22.2819
ltibia 22.9243
lfoot -18.2461 0.836373
ltoes -27.6668
151
root -5.05025 17.883 -16.8284 5.45393 -0.360028 0.148824
lowerback 14.8681 0.529089 -4.33816
upperback 2.26106 0.076142 1.04262
thorax -5.94163 0.137892 3.55107
lowerneck -13.85 0.543496 -1.31578
upperneck 12.4278 0.974869 0.175793
head 6.03199 0.42339 0.359059
rclavicle -1.50331e-015 -4.79568e-015
rhumerus -32.5464 -18.6266 -73.8608
rradius 28.1722
rwrist -5.3354
rhand -10.6178 -39.7211
rfingers 7.12502
rthumb 15.3887 -69.1284
lclavicle -1.50331e-015 -4.79568e-015
lhumerus -41.2379 22.4288 76.4478
lradius 42.3535
lwrist 8.00322
lhand -14.7732 -13.0839
lfingers 7.12502
lthumb 11.3835 16.5871
rfemur -14.4039 -0.836775 21.4112
rtibia 29.8442
rfoot -19.7339 -2.29579
rtoes 14.3225
lfemur -9.01231 1.75191 -22.4823
ltibia 22.4083
lfoot -18.2801 1.11103
ltoes -27.7033
152
root -5.04462 17.8791 -16.7588 5.20871 -0.677076 0.329357
lowerback 14.0788 0.529172 -4.74676
upperback 1.96287 0.0409209 0.986367
thorax -5.82116 0.131449 3.72622
lowerneck -13.9152 0.708474 -1.29818
upperneck 12.7471 1.19817 0.168516
head 6.1428 0.529877 0.375905
rclavicle -5.58461e-015 -1.36789e-014
rhumerus -32.7333 -20.073 -73.3782
rradius 27.7034
rwrist -4.48999
rhand -10.814 -39.4856
rfingers 7.12502
rthumb 15.1997 -68.9073
lclavicle -5.58461e-015 -1.36789e-014
lhumerus -41.6698 22.9302 76.3279
lradius 41.9347
lwrist 7.36137
lhand -14.441 -13.3442
lfingers 7.12502
lthumb 11.7039 16.3089
rfemur -13.7878 -0.810316 21.1552
rtibia 29.6324
rfoot -19.8862 -2.10095
rtoes 13.3083
lfemur -8.18644 1.74319 -22.7271
ltibia 21.9123
lfoot -18.3153 1.41785
ltoes -27.7882
153
root -5.03787 17.8756 -16.6966 4.94311 -0.922872 0.275708
lowerback 13.4831 0.506229 -4.84191
upperback 1.66968 0.0213742 0.998457
thorax -5.80174 0.129488 3.7939
lowerneck -14.1153 0.864224 -1.42346
upperneck 13.2025 1.41464 0.333102
head 6.31786 0.638911 0.472239
rclavicle -1.3449e-015 6.21202e-017
rhumerus -32.997 -21.2101 -73.0088
rradius 27.4554
rwrist -3.95621
rhand -10.8635 -39.2321
rfingers 7.12502
rthumb 15.152 -68.6574
lclavicle -1.3449e-015 6.21202e-017
lhumerus -42.0015 23.3487 76.3376
lradius 41.5832
lwrist 6.67911
lhand -13.9458 -13.4796
lfingers 7.12502
lthumb 12.1813 16.1457
rfemur -13.16 -0.723423 21.1546
rtibia 29.4266
rfoot -20.1915 -1.95232
rtoes 13.0925
lfemur -7.38623 1.62721 -22.6978
ltibia 21.4583
lfoot -18.3213 1.70426
ltoes -27.4922
